<?xml version="1.0" encoding="UTF-8"?>
<!DOCTYPE svg PUBLIC "-//W3C//DTD SVG 1.1//EN" "http://www.w3.org/Graphics/SVG/1.1/DTD/svg11.dtd">
<!-- Creator: CorelDRAW X6 -->
<svg xmlns="http://www.w3.org/2000/svg" xml:space="preserve" width="16.2569mm" height="16.256mm" version="1.1" style="shape-rendering:geometricPrecision; text-rendering:geometricPrecision; image-rendering:optimizeQuality; fill-rule:evenodd; clip-rule:evenodd"
viewBox="0 0 1528 1528"
 xmlns:xlink="http://www.w3.org/1999/xlink">
 <defs>
  <style type="text/css">
   <![CDATA[
    .fil0 {fill:#222D32}
    .fil1 {fill:white}
   ]]>
  </style>
 </defs>
 <g id="Layer_x0020_1">
  <metadata id="CorelCorpID_0Corel-Layer"/>
  <polygon class="fil0" points="1528,1528 0,1528 0,0 1528,0 "/>
  <g id="_914770096">
   <path class="fil1" d="M965 536c-80,0 -151,35 -201,89 -50,-55 -121,-89 -201,-89 -150,0 -272,122 -272,272l0 402c0,39 32,71 71,71 39,0 71,-32 71,-71l0 -402c0,-72 58,-130 130,-130 72,0 130,58 130,130l0 402c0,39 32,71 71,71 39,0 71,-32 71,-71l0 -402c0,-72 58,-130 130,-130 72,0 130,58 130,130l0 402c0,39 32,71 71,71 39,0 71,-32 71,-71l0 -402c0,-150 -122,-272 -272,-272z"/>
   <path class="fil1" d="M694 377c0,72 -58,131 -131,131 -72,0 -131,-59 -131,-131 0,-72 58,-131 131,-131 72,0 131,59 131,131z"/>
   <path class="fil1" d="M1096 377c0,72 -58,131 -131,131 -72,0 -131,-59 -131,-131 0,-72 59,-131 131,-131 72,0 131,59 131,131z"/>
  </g>
 </g>
</svg>
